<svg width="599" height="744" viewBox="0 0 599 744" fill="none" xmlns="http://www.w3.org/2000/svg">
<path d="M512.231 153.264C481.081 68.8498 406.312 37.0661 347.317 93.744C324.281 115.856 309.908 151.047 281.7 165.168C255.233 178.411 221.704 174.513 193.083 181.685C132.136 196.862 50.08 254.448 56.34 343.177C59.0819 382.044 81.1421 425.211 92.047 461.578C104.567 503.42 112.079 555.768 145.219 580.781C202.035 623.725 270.57 588.623 321.751 553.997C349.295 535.382 364.457 523.94 394.117 530.323C421.573 536.275 446.3 557.107 473.131 532.392C493.275 513.836 494.941 476.234 511.855 454.152C530.911 429.273 550.229 427.473 560.132 390.079C572.139 344.71 554.448 316.364 542.492 275.831C530.535 235.297 526.904 192.979 512.231 153.264Z" fill="#6D83B2"/>
<g opacity="0.7">
<path d="M512.231 153.264C481.081 68.8498 406.312 37.0661 347.317 93.744C324.281 115.856 309.908 151.047 281.7 165.168C255.233 178.411 221.704 174.513 193.083 181.685C132.136 196.862 50.08 254.448 56.34 343.177C59.0819 382.044 81.1421 425.211 92.047 461.578C104.567 503.42 112.079 555.768 145.219 580.781C202.035 623.725 270.57 588.623 321.751 553.997C349.295 535.382 364.457 523.94 394.117 530.323C421.573 536.275 446.3 557.107 473.131 532.392C493.275 513.836 494.941 476.234 511.855 454.152C530.911 429.273 550.229 427.473 560.132 390.079C572.139 344.71 554.448 316.364 542.492 275.831C530.535 235.297 526.904 192.979 512.231 153.264Z" fill="white"/>
</g>
<path d="M275.202 651.268C382.088 651.268 468.736 644.852 468.736 636.938C468.736 629.024 382.088 622.609 275.202 622.609C168.316 622.609 81.668 629.024 81.668 636.938C81.668 644.852 168.316 651.268 275.202 651.268Z" fill="#6D83B2"/>
<path opacity="0.8" d="M275.202 651.268C382.088 651.268 468.736 644.852 468.736 636.938C468.736 629.024 382.088 622.609 275.202 622.609C168.316 622.609 81.668 629.024 81.668 636.938C81.668 644.852 168.316 651.268 275.202 651.268Z" fill="white"/>
<path d="M420.634 92.0477H226.036C212.601 92.0477 201.71 104.992 201.71 120.96V609.232C201.71 625.199 212.601 638.144 226.036 638.144H420.634C434.07 638.144 444.961 625.199 444.961 609.232V120.96C444.961 104.992 434.07 92.0477 420.634 92.0477Z" fill="#263238"/>
<path d="M434.144 152.014H212.514V578.177H434.144V152.014Z" fill="white" stroke="#263238" stroke-width="1.33739" stroke-miterlimit="10"/>
<path d="M357.304 324.58C376.064 302.283 376.064 266.133 357.304 243.836C338.543 221.539 308.127 221.539 289.366 243.836C270.606 266.133 270.606 302.283 289.366 324.58C308.127 346.877 338.543 346.877 357.304 324.58Z" fill="#6D83B2"/>
<path d="M386.405 551.378H260.278C259.994 551.38 259.713 551.316 259.45 551.188C259.188 551.06 258.949 550.872 258.747 550.634C258.546 550.396 258.386 550.114 258.277 549.802C258.168 549.491 258.112 549.156 258.112 548.819C258.111 548.481 258.166 548.145 258.274 547.832C258.382 547.518 258.542 547.234 258.743 546.995C258.944 546.755 259.184 546.565 259.447 546.437C259.711 546.308 259.993 546.243 260.278 546.245H386.405C386.689 546.245 386.97 546.312 387.232 546.441C387.494 546.571 387.732 546.761 387.932 547C388.132 547.239 388.29 547.523 388.398 547.835C388.505 548.147 388.56 548.482 388.558 548.819C388.558 549.498 388.331 550.149 387.927 550.629C387.524 551.109 386.976 551.378 386.405 551.378Z" fill="#6D83B2"/>
<path d="M390.511 373.399H256.159C253.386 373.399 251.139 376.07 251.139 379.366V398.189C251.139 401.484 253.386 404.156 256.159 404.156H390.511C393.284 404.156 395.532 401.484 395.532 398.189V379.366C395.532 376.07 393.284 373.399 390.511 373.399Z" fill="#6D83B2"/>
<path d="M390.511 430.925H256.159C253.386 430.925 251.139 433.596 251.139 436.892V455.715C251.139 459.01 253.386 461.682 256.159 461.682H390.511C393.284 461.682 395.532 459.01 395.532 455.715V436.892C395.532 433.596 393.284 430.925 390.511 430.925Z" fill="#6D83B2"/>
<path d="M347.255 312.688L333.12 303.016V295.026C335.166 292.083 336.649 288.645 337.464 284.952C337.951 285.157 338.463 285.263 338.979 285.264C340.732 285.264 341.846 278.807 342.034 274.194C344.075 269.06 341.295 266.054 341.295 266.054C341.295 266.054 342.447 264.685 343.211 259.195C343.974 253.704 340.519 255.996 337.827 250.966C335.135 245.937 333.207 240.461 324.368 240.461C321.933 240.366 319.529 241.143 317.471 242.693C315.412 244.243 313.793 246.493 312.825 249.151C310.624 249.16 308.432 249.465 306.289 250.058C303.585 250.966 302.821 261.486 305.125 265.608C306.156 267.861 306.706 270.38 306.727 272.944C306.114 272.051 305.475 271.813 305.125 273.837C304.361 278.405 307.441 284.803 307.441 284.803L309.031 284.268C309.832 288.214 311.378 291.893 313.551 295.026V303.016L299.416 312.688C297.765 313.821 296.394 315.45 295.44 317.411C294.487 319.373 293.984 321.598 293.982 323.863V329.399C302.389 337.117 312.712 341.304 323.335 341.304C333.958 341.304 344.282 337.117 352.688 329.399V323.863C352.689 321.597 352.188 319.371 351.234 317.409C350.28 315.447 348.907 313.819 347.255 312.688Z" fill="#263238"/>
<path d="M269.43 454.034C269.106 454.028 268.797 453.873 268.567 453.602C268.443 453.471 268.345 453.31 268.278 453.131C268.211 452.951 268.177 452.757 268.178 452.56C268.182 452.292 268.247 452.03 268.366 451.802L270.62 447.516L266.225 447.68C266.06 447.692 265.894 447.663 265.738 447.593C265.583 447.524 265.442 447.417 265.324 447.278C265.12 447.006 265.007 446.653 265.007 446.288C265.007 445.924 265.12 445.571 265.324 445.299C265.439 445.155 265.58 445.043 265.736 444.971C265.891 444.899 266.059 444.869 266.225 444.882L270.557 445.076L268.329 440.805C268.207 440.573 268.142 440.305 268.141 440.031C268.14 439.835 268.174 439.641 268.241 439.461C268.307 439.281 268.406 439.121 268.529 438.99C268.759 438.719 269.069 438.564 269.393 438.558C269.606 438.56 269.815 438.634 269.994 438.771C270.174 438.908 270.317 439.102 270.407 439.332L272.548 443.93L274.664 439.362C274.764 439.118 274.919 438.912 275.111 438.765C275.303 438.618 275.525 438.536 275.753 438.529C275.911 438.53 276.068 438.57 276.212 438.647C276.356 438.724 276.486 438.835 276.592 438.975C276.822 439.258 276.948 439.638 276.942 440.031C276.942 440.287 276.886 440.538 276.78 440.761L274.514 445.076L278.908 444.882C279.075 444.869 279.242 444.899 279.398 444.971C279.554 445.043 279.694 445.155 279.809 445.299C280.023 445.562 280.14 445.915 280.135 446.281C280.134 446.65 280.018 447.005 279.809 447.278C279.692 447.417 279.55 447.524 279.395 447.593C279.24 447.663 279.074 447.692 278.908 447.68L274.488 447.516L276.692 451.757C276.815 451.994 276.881 452.267 276.88 452.546C276.88 452.94 276.748 453.319 276.513 453.598C276.278 453.877 275.96 454.034 275.628 454.034C275.413 454.03 275.204 453.952 275.026 453.81C274.848 453.667 274.709 453.465 274.626 453.23L272.535 448.766L270.457 453.23C270.365 453.463 270.22 453.662 270.039 453.804C269.858 453.946 269.647 454.025 269.43 454.034Z" fill="#263238"/>
<path d="M289.738 454.034C289.414 454.028 289.104 453.873 288.874 453.602C288.751 453.471 288.652 453.31 288.586 453.131C288.519 452.951 288.485 452.757 288.486 452.56C288.49 452.292 288.555 452.03 288.674 451.802L290.927 447.516L286.545 447.68C286.378 447.689 286.211 447.658 286.054 447.589C285.897 447.52 285.753 447.414 285.631 447.278C285.465 447.074 285.354 446.816 285.313 446.536C285.273 446.257 285.303 445.969 285.402 445.71C285.501 445.452 285.662 445.235 285.866 445.087C286.07 444.939 286.307 444.868 286.545 444.882L290.865 445.076L288.636 440.805C288.515 440.573 288.45 440.305 288.448 440.031C288.447 439.835 288.481 439.641 288.548 439.461C288.615 439.281 288.713 439.121 288.836 438.99C289.067 438.719 289.376 438.564 289.7 438.558C289.914 438.56 290.122 438.634 290.302 438.771C290.481 438.908 290.624 439.102 290.714 439.332L292.855 443.93L294.971 439.362C295.072 439.118 295.226 438.912 295.418 438.765C295.61 438.618 295.832 438.536 296.06 438.529C296.219 438.528 296.376 438.567 296.52 438.644C296.665 438.721 296.794 438.834 296.899 438.975C297.015 439.114 297.107 439.279 297.169 439.46C297.232 439.642 297.263 439.836 297.262 440.031C297.258 440.288 297.197 440.54 297.087 440.761L294.821 445.076L299.228 444.912C299.393 444.899 299.558 444.929 299.712 445.001C299.866 445.073 300.004 445.185 300.117 445.329C300.33 445.592 300.447 445.945 300.442 446.311C300.442 446.68 300.326 447.035 300.117 447.308C300.001 447.446 299.862 447.553 299.709 447.623C299.556 447.692 299.392 447.722 299.228 447.71L294.796 447.546L296.999 451.787C297.123 452.023 297.188 452.297 297.187 452.575C297.187 452.97 297.055 453.348 296.821 453.627C296.586 453.907 296.267 454.063 295.935 454.063C295.721 454.06 295.511 453.982 295.333 453.839C295.156 453.697 295.017 453.495 294.934 453.26L292.843 448.796L290.764 453.26C290.669 453.488 290.523 453.68 290.342 453.816C290.161 453.953 289.952 454.028 289.738 454.034Z" fill="#263238"/>
<path d="M310.058 454.034C309.729 454.032 309.415 453.877 309.181 453.602C309.058 453.471 308.96 453.31 308.893 453.131C308.826 452.951 308.792 452.757 308.793 452.56C308.797 452.292 308.862 452.03 308.981 451.802L311.235 447.516L306.853 447.68C306.617 447.691 306.383 447.618 306.182 447.471C305.981 447.324 305.821 447.109 305.723 446.854C305.625 446.599 305.593 446.314 305.632 446.038C305.67 445.761 305.777 445.503 305.939 445.299C306.057 445.156 306.2 445.044 306.358 444.972C306.515 444.9 306.684 444.87 306.853 444.882L311.172 445.076L308.944 440.805C308.822 440.573 308.757 440.305 308.756 440.031C308.76 439.836 308.796 439.644 308.863 439.465C308.929 439.286 309.025 439.125 309.144 438.99C309.377 438.715 309.692 438.56 310.02 438.558C310.231 438.563 310.437 438.638 310.614 438.775C310.792 438.911 310.933 439.105 311.022 439.332L313.163 443.93L315.279 439.362C315.379 439.118 315.534 438.912 315.726 438.765C315.918 438.618 316.14 438.536 316.368 438.529C316.526 438.528 316.683 438.567 316.828 438.644C316.972 438.721 317.102 438.834 317.207 438.975C317.323 439.114 317.415 439.279 317.477 439.46C317.539 439.642 317.571 439.836 317.57 440.031C317.565 440.288 317.505 440.54 317.395 440.761L315.128 445.076L319.535 444.882C319.697 444.863 319.861 444.885 320.015 444.948C320.169 445.01 320.311 445.111 320.429 445.243C320.548 445.376 320.641 445.537 320.703 445.716C320.765 445.895 320.794 446.088 320.787 446.281C320.79 446.648 320.679 447.003 320.474 447.278C320.357 447.417 320.215 447.524 320.06 447.593C319.905 447.663 319.739 447.692 319.573 447.68L315.153 447.516L317.344 451.757C317.468 451.994 317.533 452.267 317.532 452.546C317.528 452.741 317.492 452.934 317.425 453.112C317.359 453.291 317.263 453.452 317.144 453.587C317.035 453.726 316.904 453.838 316.757 453.915C316.611 453.991 316.453 454.032 316.293 454.034C316.08 454.029 315.873 453.951 315.697 453.808C315.521 453.665 315.384 453.464 315.304 453.23L313.2 448.766L311.122 453.23C311.028 453.471 310.878 453.675 310.689 453.818C310.501 453.96 310.281 454.035 310.058 454.034Z" fill="#263238"/>
<path d="M330.365 454.034C330.037 454.032 329.722 453.877 329.489 453.602C329.253 453.327 329.118 452.953 329.113 452.56C329.109 452.293 329.17 452.029 329.289 451.802L331.542 447.516L327.16 447.68C326.993 447.689 326.826 447.658 326.669 447.589C326.512 447.52 326.368 447.414 326.246 447.278C326.042 447.006 325.929 446.653 325.929 446.288C325.929 445.924 326.042 445.572 326.246 445.299C326.367 445.16 326.51 445.052 326.667 444.98C326.824 444.909 326.992 444.875 327.16 444.882L331.492 445.076L329.276 440.805C329.155 440.573 329.09 440.305 329.088 440.031C329.092 439.836 329.128 439.644 329.195 439.465C329.262 439.286 329.357 439.125 329.476 438.99C329.71 438.715 330.024 438.56 330.353 438.558C330.566 438.56 330.775 438.634 330.954 438.771C331.134 438.908 331.277 439.102 331.367 439.332L333.495 443.93L335.611 439.362C335.711 439.118 335.866 438.912 336.058 438.765C336.25 438.618 336.472 438.536 336.7 438.529C336.859 438.528 337.016 438.567 337.16 438.644C337.305 438.721 337.434 438.834 337.539 438.975C337.655 439.114 337.747 439.279 337.809 439.46C337.872 439.642 337.903 439.836 337.902 440.031C337.898 440.288 337.837 440.54 337.727 440.761L335.461 445.076L339.868 444.882C340.03 444.863 340.194 444.885 340.348 444.948C340.502 445.01 340.643 445.111 340.762 445.243C340.88 445.376 340.974 445.537 341.036 445.716C341.097 445.895 341.126 446.088 341.12 446.281C341.123 446.648 341.011 447.003 340.807 447.278C340.689 447.417 340.548 447.524 340.392 447.593C340.237 447.663 340.071 447.692 339.905 447.68L335.486 447.516L337.677 451.757C337.8 451.994 337.865 452.267 337.865 452.546C337.866 452.742 337.832 452.936 337.765 453.116C337.698 453.296 337.6 453.456 337.477 453.587C337.368 453.726 337.236 453.838 337.09 453.915C336.943 453.991 336.785 454.032 336.625 454.034C336.412 454.029 336.205 453.951 336.029 453.808C335.854 453.665 335.717 453.464 335.636 453.23L333.533 448.766L331.454 453.23C331.359 453.476 331.205 453.683 331.011 453.826C330.818 453.969 330.593 454.041 330.365 454.034Z" fill="#263238"/>
<path d="M350.673 454.034C350.344 454.032 350.029 453.877 349.796 453.602C349.602 453.369 349.479 453.065 349.445 452.74C349.411 452.414 349.468 452.084 349.608 451.802L351.85 447.516L347.468 447.68C347.3 447.689 347.133 447.658 346.976 447.589C346.819 447.52 346.676 447.414 346.554 447.278C346.349 447.006 346.237 446.653 346.237 446.288C346.237 445.924 346.349 445.572 346.554 445.299C346.675 445.16 346.818 445.052 346.975 444.98C347.132 444.909 347.299 444.875 347.468 444.882L351.799 445.076L349.571 440.805C349.45 440.573 349.385 440.305 349.383 440.031C349.388 439.639 349.523 439.265 349.759 438.99C349.992 438.715 350.307 438.56 350.635 438.558C350.848 438.56 351.057 438.634 351.237 438.771C351.416 438.908 351.559 439.102 351.649 439.332L353.778 443.93L355.894 439.362C355.994 439.118 356.148 438.912 356.34 438.765C356.532 438.618 356.755 438.536 356.983 438.529C357.143 438.528 357.302 438.567 357.449 438.644C357.595 438.721 357.727 438.834 357.834 438.975C358.064 439.258 358.19 439.638 358.185 440.031C358.18 440.288 358.12 440.54 358.009 440.761L355.743 445.076L360.15 444.882C360.312 444.863 360.476 444.885 360.63 444.948C360.784 445.01 360.926 445.111 361.044 445.243C361.163 445.376 361.256 445.537 361.318 445.716C361.38 445.895 361.409 446.088 361.402 446.281C361.405 446.648 361.293 447.003 361.089 447.278C360.971 447.417 360.83 447.524 360.675 447.593C360.519 447.663 360.353 447.692 360.188 447.68L355.768 447.516L357.959 451.757C358.083 451.994 358.148 452.267 358.147 452.546C358.148 452.742 358.114 452.936 358.047 453.116C357.981 453.296 357.882 453.456 357.759 453.587C357.65 453.726 357.518 453.838 357.372 453.915C357.226 453.991 357.068 454.032 356.908 454.034C356.695 454.029 356.488 453.951 356.312 453.808C356.136 453.665 355.999 453.464 355.919 453.23L353.815 448.766L351.737 453.23C351.643 453.471 351.493 453.675 351.304 453.818C351.116 453.96 350.896 454.035 350.673 454.034Z" fill="#263238"/>
<path d="M370.98 454.034C370.656 454.028 370.346 453.873 370.116 453.602C369.993 453.471 369.895 453.31 369.828 453.131C369.761 452.951 369.727 452.757 369.728 452.56C369.732 452.292 369.797 452.03 369.916 451.802L372.157 447.516L367.775 447.68C367.614 447.694 367.452 447.669 367.299 447.605C367.147 447.541 367.008 447.44 366.89 447.308C366.772 447.177 366.679 447.017 366.615 446.841C366.552 446.664 366.521 446.473 366.523 446.281C366.522 446.099 366.552 445.919 366.61 445.75C366.668 445.581 366.753 445.428 366.861 445.299C366.976 445.155 367.117 445.043 367.273 444.971C367.428 444.899 367.596 444.869 367.762 444.882L372.094 445.076L369.866 440.805C369.745 440.573 369.68 440.305 369.678 440.031C369.683 439.639 369.818 439.265 370.054 438.99C370.287 438.715 370.602 438.56 370.93 438.558C371.143 438.56 371.352 438.634 371.531 438.771C371.711 438.908 371.854 439.102 371.944 439.332L374.073 443.93L376.201 439.362C376.3 439.12 376.453 438.915 376.642 438.769C376.832 438.622 377.052 438.539 377.278 438.529C377.438 438.528 377.597 438.567 377.743 438.644C377.89 438.721 378.022 438.834 378.129 438.975C378.359 439.258 378.485 439.638 378.48 440.031C378.479 440.287 378.423 440.538 378.317 440.761L376.051 445.076L380.445 444.882C380.612 444.869 380.779 444.899 380.935 444.971C381.091 445.043 381.231 445.155 381.347 445.299C381.56 445.562 381.677 445.915 381.672 446.281C381.671 446.65 381.555 447.005 381.347 447.278C381.229 447.417 381.087 447.524 380.932 447.593C380.777 447.663 380.611 447.692 380.445 447.68L376.026 447.516L378.217 451.757C378.34 451.994 378.405 452.267 378.404 452.546C378.4 452.938 378.265 453.312 378.029 453.587C377.801 453.864 377.491 454.024 377.165 454.034C376.952 454.029 376.745 453.951 376.569 453.808C376.393 453.665 376.257 453.464 376.176 453.23L374.073 448.766L371.994 453.23C371.904 453.462 371.762 453.66 371.583 453.802C371.404 453.944 371.195 454.024 370.98 454.034Z" fill="#263238"/>
<g style="mix-blend-mode:multiply">
<path d="M434.144 152.58H212.514V169.082H434.144V152.58Z" fill="#6D83B2"/>
</g>
<path d="M347.43 122.18H299.228C298.358 122.18 297.524 121.769 296.909 121.038C296.293 120.307 295.948 119.315 295.948 118.281C295.948 117.247 296.293 116.256 296.909 115.524C297.524 114.793 298.358 114.383 299.228 114.383H347.43C348.3 114.383 349.134 114.793 349.749 115.524C350.365 116.256 350.71 117.247 350.71 118.281C350.71 119.315 350.365 120.307 349.749 121.038C349.134 121.769 348.3 122.18 347.43 122.18Z" fill="#6D83B2" stroke="#263238" stroke-width="1.33739" stroke-linecap="round" stroke-linejoin="round"/>
<path d="M336.475 602.253C336.477 599.162 335.708 596.139 334.265 593.567C332.821 590.996 330.768 588.991 328.366 587.806C325.963 586.622 323.319 586.311 320.767 586.914C318.216 587.516 315.873 589.004 314.033 591.19C312.194 593.376 310.942 596.162 310.435 599.194C309.928 602.226 310.19 605.369 311.186 608.224C312.183 611.08 313.87 613.52 316.033 615.235C318.197 616.951 320.74 617.865 323.342 617.862C326.824 617.858 330.162 616.213 332.625 613.286C335.087 610.36 336.472 606.392 336.475 602.253Z" fill="#6D83B2"/>
<path d="M330.002 594.337H316.681V610.169H330.002V594.337Z" fill="#6D83B2" stroke="#263238" stroke-width="1.33739" stroke-linecap="round" stroke-linejoin="round"/>
<path d="M482.02 422.592C482.02 422.592 464.567 369.887 480.104 363.623C496.28 357.09 495.567 391.895 494.941 408.858C493.626 445.105 490.258 451.846 487.742 442.993L482.02 422.592ZM476.774 463.705C481.569 471.145 482.921 463.438 474.27 428.633C470.214 412.265 461.4 379.157 447.878 391.582C434.895 403.486 465.794 446.638 465.794 446.638L476.774 463.705ZM467.509 493.912C472.079 498.733 472.167 492.647 461.312 467.515C456.216 455.745 445.437 431.922 436.61 443.707C428.134 455.075 457.018 482.707 457.018 482.707L467.509 493.912ZM457.493 529.832C462.063 534.668 462.151 528.567 451.296 503.45C446.2 491.68 435.421 467.842 426.594 479.642C418.168 491.04 446.964 518.672 446.964 518.672L457.493 529.832ZM486.415 456.712C479.103 460.105 484.912 463.795 515.448 463.691C529.771 463.691 559.018 462.917 552.783 444.004C546.811 425.836 503.317 448.974 503.317 448.974L486.415 456.712ZM478.089 480.877C470.351 482.469 475.435 487.469 505.382 494.581C519.417 497.929 548.201 504.105 545.259 484.165C542.442 464.941 495.942 477.35 495.942 477.35L478.089 480.877ZM468.774 510.384C462.188 511.515 466.395 515.875 491.573 522.72C503.379 525.934 527.605 531.96 525.502 514.952C523.499 498.584 483.936 507.84 483.936 507.84L468.774 510.384ZM461.7 537.719C455.252 539.668 459.822 543.477 485.488 547.108C497.507 548.804 522.134 551.75 518.541 535.1C515.073 519.119 476.561 533.269 476.561 533.269L461.7 537.719ZM499.435 427.056C495.679 437.055 503.479 435.538 529.997 408.039C542.417 395.138 567.331 368.146 547.6 354.709C528.657 341.794 508.287 404.111 508.287 404.111L499.435 427.056ZM462.677 573.326C458.708 576.079 462.602 577.151 480.806 572.835C489.344 570.827 506.709 566.363 500.838 557.554C495.153 549.072 471.866 566.928 471.866 566.928L462.677 573.326Z" fill="#6D83B2"/>
<path opacity="0.3" d="M482.02 422.592C482.02 422.592 464.567 369.887 480.104 363.623C496.28 357.09 495.567 391.895 494.941 408.858C493.626 445.105 490.258 451.846 487.742 442.993L482.02 422.592ZM476.774 463.705C481.569 471.145 482.921 463.438 474.27 428.633C470.214 412.265 461.4 379.157 447.878 391.582C434.895 403.486 465.794 446.638 465.794 446.638L476.774 463.705ZM467.509 493.912C472.079 498.733 472.167 492.647 461.312 467.515C456.216 455.745 445.437 431.922 436.61 443.707C428.134 455.075 457.018 482.707 457.018 482.707L467.509 493.912ZM457.493 529.832C462.063 534.668 462.151 528.567 451.296 503.45C446.2 491.68 435.421 467.842 426.594 479.642C418.168 491.04 446.964 518.672 446.964 518.672L457.493 529.832ZM486.415 456.712C479.103 460.105 484.912 463.795 515.448 463.691C529.771 463.691 559.018 462.917 552.783 444.004C546.811 425.836 503.317 448.974 503.317 448.974L486.415 456.712ZM478.089 480.877C470.351 482.469 475.435 487.469 505.382 494.581C519.417 497.929 548.201 504.105 545.259 484.165C542.442 464.941 495.942 477.35 495.942 477.35L478.089 480.877ZM468.774 510.384C462.188 511.515 466.395 515.875 491.573 522.72C503.379 525.934 527.605 531.96 525.502 514.952C523.499 498.584 483.936 507.84 483.936 507.84L468.774 510.384ZM461.7 537.719C455.252 539.668 459.822 543.477 485.488 547.108C497.507 548.804 522.134 551.75 518.541 535.1C515.073 519.119 476.561 533.269 476.561 533.269L461.7 537.719ZM499.435 427.056C495.679 437.055 503.479 435.538 529.997 408.039C542.417 395.138 567.331 368.146 547.6 354.709C528.657 341.794 508.287 404.111 508.287 404.111L499.435 427.056ZM462.677 573.326C458.708 576.079 462.602 577.151 480.806 572.835C489.344 570.827 506.709 566.363 500.838 557.554C495.153 549.072 471.866 566.928 471.866 566.928L462.677 573.326Z" fill="white"/>
<path d="M489.72 447.129L486.677 386.969L489.72 447.129ZM480.092 466.979L460.861 415.241L480.092 466.979ZM529.721 451.935L483.635 459.792L529.721 451.935ZM470.126 494.864L445.174 456.816L470.126 494.864ZM474.508 483.198L508.888 485.252L474.508 483.198ZM466.37 512.378L492.662 515.473L466.37 512.378ZM460.022 530.918L446.964 507.572L460.022 530.918ZM458.52 539.162L489.432 539.504L458.52 539.162ZM452.26 608.086C452.467 608.067 452.66 607.952 452.795 607.765C452.931 607.578 453 607.335 452.986 607.089C451.021 572.002 462.439 514.536 480.755 467.366C492.462 437.219 538.348 377.967 538.836 377.372C538.983 377.196 539.066 376.958 539.066 376.71C539.066 376.461 538.983 376.223 538.836 376.047C538.764 375.961 538.678 375.892 538.583 375.846C538.489 375.799 538.387 375.775 538.285 375.775C538.182 375.775 538.081 375.799 537.987 375.846C537.892 375.892 537.806 375.961 537.734 376.047C537.271 376.643 491.197 436.118 479.391 466.533C460.736 514.848 449.468 571.273 451.471 607.208C451.487 607.445 451.576 607.666 451.722 607.829C451.868 607.991 452.06 608.083 452.26 608.086ZM489.707 448.052C489.914 448.036 490.108 447.925 490.246 447.741C490.385 447.557 490.456 447.316 490.446 447.07L487.454 386.88C487.449 386.757 487.424 386.637 487.379 386.527C487.335 386.416 487.273 386.317 487.196 386.235C487.119 386.153 487.029 386.09 486.931 386.05C486.834 386.01 486.73 385.994 486.627 386.002C486.42 386.017 486.227 386.129 486.088 386.313C485.95 386.497 485.878 386.738 485.889 386.984L488.931 447.144C488.941 447.381 489.027 447.604 489.171 447.768C489.316 447.931 489.508 448.022 489.707 448.022V448.052ZM480.367 467.827C480.555 467.726 480.702 467.542 480.777 467.314C480.852 467.086 480.848 466.832 480.768 466.607L461.525 414.869C461.442 414.644 461.287 414.468 461.094 414.378C460.902 414.289 460.687 414.294 460.498 414.393C460.309 414.492 460.16 414.676 460.085 414.905C460.01 415.133 460.014 415.388 460.097 415.613L479.328 467.351C479.389 467.517 479.488 467.659 479.615 467.759C479.741 467.859 479.89 467.914 480.042 467.916C480.171 467.924 480.301 467.894 480.417 467.827H480.367ZM483.698 460.685L529.759 452.858C529.87 452.855 529.979 452.825 530.08 452.768C530.181 452.711 530.27 452.63 530.342 452.53C530.414 452.429 530.468 452.311 530.499 452.185C530.531 452.058 530.539 451.924 530.524 451.793C530.509 451.662 530.471 451.537 530.412 451.424C530.353 451.312 530.275 451.216 530.182 451.142C530.09 451.069 529.985 451.019 529.876 450.997C529.766 450.974 529.654 450.98 529.546 451.013L483.485 458.84C483.279 458.855 483.087 458.968 482.951 459.152C482.814 459.336 482.745 459.577 482.759 459.822C482.772 460.066 482.866 460.295 483.021 460.457C483.176 460.619 483.379 460.701 483.585 460.685H483.698ZM470.564 495.608C470.728 495.456 470.834 495.232 470.86 494.987C470.886 494.742 470.829 494.494 470.702 494.299L445.737 456.176C445.609 455.979 445.421 455.85 445.213 455.818C445.005 455.786 444.795 455.853 444.629 456.005C444.463 456.157 444.355 456.381 444.328 456.628C444.301 456.875 444.357 457.125 444.485 457.322L469.5 495.504C469.573 495.615 469.666 495.705 469.772 495.767C469.878 495.829 469.995 495.861 470.113 495.861C470.3 495.85 470.478 495.76 470.614 495.608H470.564ZM509.577 485.296C509.583 485.05 509.508 484.811 509.368 484.63C509.227 484.449 509.032 484.341 508.825 484.329L474.508 482.261C474.315 482.277 474.134 482.376 473.999 482.54C473.863 482.704 473.784 482.922 473.774 483.151C473.765 483.381 473.827 483.606 473.948 483.785C474.07 483.964 474.242 484.083 474.433 484.121L508.813 486.189C509.02 486.197 509.221 486.108 509.374 485.941C509.526 485.774 509.617 485.542 509.627 485.296H509.577ZM493.388 515.562C493.4 515.44 493.392 515.316 493.363 515.197C493.334 515.079 493.285 514.969 493.22 514.873C493.155 514.777 493.074 514.698 492.982 514.64C492.891 514.582 492.79 514.547 492.687 514.536L466.395 511.455C466.293 511.443 466.19 511.455 466.092 511.49C465.994 511.525 465.902 511.584 465.823 511.661C465.744 511.739 465.679 511.834 465.631 511.942C465.583 512.049 465.553 512.167 465.544 512.289C465.526 512.533 465.59 512.775 465.721 512.964C465.852 513.154 466.04 513.274 466.245 513.3L492.537 516.396H492.612C492.814 516.412 493.013 516.334 493.168 516.179C493.322 516.023 493.419 515.802 493.438 515.562H493.388ZM460.398 531.692C460.572 531.556 460.693 531.343 460.735 531.1C460.778 530.858 460.737 530.605 460.623 530.398L447.628 507.051C447.509 506.85 447.329 506.711 447.126 506.664C446.923 506.617 446.712 506.665 446.538 506.798C446.364 506.935 446.243 507.147 446.201 507.39C446.159 507.633 446.199 507.885 446.313 508.092L459.309 531.439C459.383 531.567 459.482 531.671 459.598 531.744C459.713 531.816 459.842 531.855 459.972 531.856C460.142 531.867 460.31 531.809 460.448 531.692H460.398ZM490.221 539.504C490.217 539.259 490.135 539.025 489.991 538.851C489.846 538.676 489.65 538.574 489.444 538.567L458.532 538.224C458.327 538.224 458.129 538.322 457.984 538.495C457.838 538.668 457.756 538.902 457.756 539.147C457.753 539.27 457.771 539.392 457.808 539.507C457.846 539.622 457.903 539.726 457.975 539.814C458.048 539.901 458.135 539.971 458.23 540.017C458.326 540.064 458.429 540.087 458.532 540.084L489.444 540.427C489.55 540.433 489.656 540.413 489.755 540.37C489.854 540.326 489.945 540.26 490.022 540.174C490.099 540.088 490.161 539.984 490.204 539.869C490.246 539.754 490.269 539.63 490.271 539.504H490.221ZM448.742 594.441C448.804 594.277 454.075 577.017 469.926 572.895C470.13 572.841 470.308 572.694 470.42 572.485C470.533 572.275 470.571 572.022 470.527 571.779C470.476 571.541 470.35 571.335 470.175 571.205C470 571.075 469.79 571.03 469.588 571.08C452.873 575.424 447.327 593.652 447.264 593.831C447.2 594.066 447.215 594.322 447.306 594.544C447.397 594.766 447.557 594.937 447.753 595.021H448.003C448.17 595.039 448.336 594.991 448.479 594.887C448.621 594.782 448.731 594.626 448.792 594.441H448.742ZM452.26 608.086C452.467 608.067 452.66 607.952 452.795 607.765C452.931 607.578 453 607.335 452.986 607.089C451.021 572.002 462.439 514.536 480.755 467.366C492.462 437.219 538.348 377.967 538.836 377.372C538.983 377.196 539.066 376.958 539.066 376.71C539.066 376.461 538.983 376.223 538.836 376.047C538.764 375.961 538.678 375.892 538.583 375.846C538.489 375.799 538.387 375.775 538.285 375.775C538.182 375.775 538.081 375.799 537.987 375.846C537.892 375.892 537.806 375.961 537.734 376.047C537.271 376.643 491.197 436.118 479.391 466.533C460.736 514.848 449.468 571.273 451.471 607.208C451.487 607.445 451.576 607.666 451.722 607.829C451.868 607.991 452.06 608.083 452.26 608.086ZM489.707 448.052C489.914 448.036 490.108 447.925 490.246 447.741C490.385 447.557 490.456 447.316 490.446 447.07L487.454 386.88C487.449 386.757 487.424 386.637 487.379 386.527C487.335 386.416 487.273 386.317 487.196 386.235C487.119 386.153 487.029 386.09 486.931 386.05C486.834 386.01 486.73 385.994 486.627 386.002C486.42 386.017 486.227 386.129 486.088 386.313C485.95 386.497 485.878 386.738 485.889 386.984L488.931 447.144C488.941 447.381 489.027 447.604 489.171 447.768C489.316 447.931 489.508 448.022 489.707 448.022V448.052ZM480.367 467.827C480.555 467.726 480.702 467.542 480.777 467.314C480.852 467.086 480.848 466.832 480.768 466.607L461.525 414.869C461.442 414.644 461.287 414.468 461.094 414.378C460.902 414.289 460.687 414.294 460.498 414.393C460.309 414.492 460.16 414.676 460.085 414.905C460.01 415.133 460.014 415.388 460.097 415.613L479.328 467.351C479.389 467.517 479.488 467.659 479.615 467.759C479.741 467.859 479.89 467.914 480.042 467.916C480.171 467.924 480.301 467.894 480.417 467.827H480.367ZM483.698 460.685L529.759 452.858C529.87 452.855 529.979 452.825 530.08 452.768C530.181 452.711 530.27 452.63 530.342 452.53C530.414 452.429 530.468 452.311 530.499 452.185C530.531 452.058 530.539 451.924 530.524 451.793C530.509 451.662 530.471 451.537 530.412 451.424C530.353 451.312 530.275 451.216 530.182 451.142C530.09 451.069 529.985 451.019 529.876 450.997C529.766 450.974 529.654 450.98 529.546 451.013L483.485 458.84C483.279 458.855 483.087 458.968 482.951 459.152C482.814 459.336 482.745 459.577 482.759 459.822C482.772 460.066 482.866 460.295 483.021 460.457C483.176 460.619 483.379 460.701 483.585 460.685H483.698ZM470.564 495.608C470.728 495.456 470.834 495.232 470.86 494.987C470.886 494.742 470.829 494.494 470.702 494.299L445.737 456.176C445.674 456.078 445.595 455.997 445.505 455.935C445.415 455.874 445.316 455.834 445.213 455.818C445.11 455.802 445.005 455.81 444.905 455.842C444.805 455.875 444.711 455.93 444.629 456.005C444.547 456.08 444.478 456.174 444.426 456.281C444.374 456.388 444.341 456.506 444.328 456.628C444.314 456.75 444.321 456.875 444.348 456.994C444.375 457.113 444.422 457.224 444.485 457.322L469.5 495.504C469.573 495.615 469.666 495.705 469.772 495.767C469.878 495.829 469.995 495.861 470.113 495.861C470.3 495.85 470.478 495.76 470.614 495.608H470.564ZM509.577 485.296C509.583 485.05 509.508 484.811 509.368 484.63C509.227 484.449 509.032 484.341 508.825 484.329L474.508 482.261C474.315 482.277 474.134 482.376 473.999 482.54C473.863 482.704 473.784 482.922 473.774 483.151C473.765 483.381 473.827 483.606 473.948 483.785C474.07 483.964 474.242 484.083 474.433 484.121L508.813 486.189C509.02 486.197 509.221 486.108 509.374 485.941C509.526 485.774 509.617 485.542 509.627 485.296H509.577ZM493.388 515.562C493.4 515.44 493.392 515.316 493.363 515.197C493.334 515.079 493.285 514.969 493.22 514.873C493.155 514.777 493.074 514.698 492.982 514.64C492.891 514.582 492.79 514.547 492.687 514.536L466.395 511.455C466.293 511.443 466.19 511.455 466.092 511.49C465.994 511.525 465.902 511.584 465.823 511.661C465.744 511.739 465.679 511.834 465.631 511.942C465.583 512.049 465.553 512.167 465.544 512.289C465.526 512.533 465.59 512.775 465.721 512.964C465.852 513.154 466.04 513.274 466.245 513.3L492.537 516.396H492.612C492.814 516.412 493.013 516.334 493.168 516.179C493.322 516.023 493.419 515.802 493.438 515.562H493.388ZM460.398 531.692C460.572 531.556 460.693 531.343 460.735 531.1C460.778 530.858 460.737 530.605 460.623 530.398L447.628 507.051C447.509 506.85 447.329 506.711 447.126 506.664C446.923 506.617 446.712 506.665 446.538 506.798C446.364 506.935 446.243 507.147 446.201 507.39C446.159 507.633 446.199 507.885 446.313 508.092L459.309 531.439C459.383 531.567 459.482 531.671 459.598 531.744C459.713 531.816 459.842 531.855 459.972 531.856C460.142 531.867 460.31 531.809 460.448 531.692H460.398ZM490.221 539.504C490.217 539.259 490.135 539.025 489.991 538.851C489.846 538.676 489.65 538.574 489.444 538.567L458.532 538.224C458.327 538.224 458.129 538.322 457.984 538.495C457.838 538.668 457.756 538.902 457.756 539.147C457.753 539.27 457.771 539.392 457.808 539.507C457.846 539.622 457.903 539.726 457.975 539.814C458.048 539.901 458.135 539.971 458.23 540.017C458.326 540.064 458.429 540.087 458.532 540.084L489.444 540.427C489.55 540.433 489.656 540.413 489.755 540.37C489.854 540.326 489.945 540.26 490.022 540.174C490.099 540.088 490.161 539.984 490.204 539.869C490.246 539.754 490.269 539.63 490.271 539.504H490.221ZM448.742 594.441C448.804 594.277 454.075 577.017 469.926 572.895C470.13 572.841 470.308 572.694 470.42 572.485C470.533 572.275 470.571 572.022 470.527 571.779C470.476 571.541 470.35 571.335 470.175 571.205C470 571.075 469.79 571.03 469.588 571.08C452.873 575.424 447.327 593.652 447.264 593.831C447.2 594.066 447.215 594.322 447.306 594.544C447.397 594.766 447.557 594.937 447.753 595.021H448.003C448.17 595.039 448.336 594.991 448.479 594.887C448.621 594.782 448.731 594.626 448.792 594.441H448.742Z" fill="#6D83B2"/>
<path opacity="0.2" d="M489.72 447.129L486.677 386.969L489.72 447.129ZM480.092 466.979L460.861 415.241L480.092 466.979ZM529.721 451.935L483.635 459.792L529.721 451.935ZM470.126 494.864L445.174 456.816L470.126 494.864ZM474.508 483.198L508.888 485.252L474.508 483.198ZM466.37 512.378L492.662 515.473L466.37 512.378ZM460.022 530.918L446.964 507.572L460.022 530.918ZM458.52 539.162L489.432 539.504L458.52 539.162ZM452.26 608.086C452.467 608.067 452.66 607.952 452.795 607.765C452.931 607.578 453 607.335 452.986 607.089C451.021 572.002 462.439 514.536 480.755 467.366C492.462 437.219 538.348 377.967 538.836 377.372C538.983 377.196 539.066 376.958 539.066 376.71C539.066 376.461 538.983 376.223 538.836 376.047C538.764 375.961 538.678 375.892 538.583 375.846C538.489 375.799 538.387 375.775 538.285 375.775C538.182 375.775 538.081 375.799 537.987 375.846C537.892 375.892 537.806 375.961 537.734 376.047C537.271 376.643 491.197 436.118 479.391 466.533C460.736 514.848 449.468 571.273 451.471 607.208C451.487 607.445 451.576 607.666 451.722 607.829C451.868 607.991 452.06 608.083 452.26 608.086ZM489.707 448.052C489.914 448.036 490.108 447.925 490.246 447.741C490.385 447.557 490.456 447.316 490.446 447.07L487.454 386.88C487.449 386.757 487.424 386.637 487.379 386.527C487.335 386.416 487.273 386.317 487.196 386.235C487.119 386.153 487.029 386.09 486.931 386.05C486.834 386.01 486.73 385.994 486.627 386.002C486.42 386.017 486.227 386.129 486.088 386.313C485.95 386.497 485.878 386.738 485.889 386.984L488.931 447.144C488.941 447.381 489.027 447.604 489.171 447.768C489.316 447.931 489.508 448.022 489.707 448.022V448.052ZM480.367 467.827C480.555 467.726 480.702 467.542 480.777 467.314C480.852 467.086 480.848 466.832 480.768 466.607L461.525 414.869C461.442 414.644 461.287 414.468 461.094 414.378C460.902 414.289 460.687 414.294 460.498 414.393C460.309 414.492 460.16 414.676 460.085 414.905C460.01 415.133 460.014 415.388 460.097 415.613L479.328 467.351C479.389 467.517 479.488 467.659 479.615 467.759C479.741 467.859 479.89 467.914 480.042 467.916C480.171 467.924 480.301 467.894 480.417 467.827H480.367ZM483.698 460.685L529.759 452.858C529.87 452.855 529.979 452.825 530.08 452.768C530.181 452.711 530.27 452.63 530.342 452.53C530.414 452.429 530.468 452.311 530.499 452.185C530.531 452.058 530.539 451.924 530.524 451.793C530.509 451.662 530.471 451.537 530.412 451.424C530.353 451.312 530.275 451.216 530.182 451.142C530.09 451.069 529.985 451.019 529.876 450.997C529.766 450.974 529.654 450.98 529.546 451.013L483.485 458.84C483.279 458.855 483.087 458.968 482.951 459.152C482.814 459.336 482.745 459.577 482.759 459.822C482.772 460.066 482.866 460.295 483.021 460.457C483.176 460.619 483.379 460.701 483.585 460.685H483.698ZM470.564 495.608C470.728 495.456 470.834 495.232 470.86 494.987C470.886 494.742 470.829 494.494 470.702 494.299L445.737 456.176C445.609 455.979 445.421 455.85 445.213 455.818C445.005 455.786 444.795 455.853 444.629 456.005C444.463 456.157 444.355 456.381 444.328 456.628C444.301 456.875 444.357 457.125 444.485 457.322L469.5 495.504C469.573 495.615 469.666 495.705 469.772 495.767C469.878 495.829 469.995 495.861 470.113 495.861C470.3 495.85 470.478 495.76 470.614 495.608H470.564ZM509.577 485.296C509.583 485.05 509.508 484.811 509.368 484.63C509.227 484.449 509.032 484.341 508.825 484.329L474.508 482.261C474.315 482.277 474.134 482.376 473.999 482.54C473.863 482.704 473.784 482.922 473.774 483.151C473.765 483.381 473.827 483.606 473.948 483.785C474.07 483.964 474.242 484.083 474.433 484.121L508.813 486.189C509.02 486.197 509.221 486.108 509.374 485.941C509.526 485.774 509.617 485.542 509.627 485.296H509.577ZM493.388 515.562C493.4 515.44 493.392 515.316 493.363 515.197C493.334 515.079 493.285 514.969 493.22 514.873C493.155 514.777 493.074 514.698 492.982 514.64C492.891 514.582 492.79 514.547 492.687 514.536L466.395 511.455C466.293 511.443 466.19 511.455 466.092 511.49C465.994 511.525 465.902 511.584 465.823 511.661C465.744 511.739 465.679 511.834 465.631 511.942C465.583 512.049 465.553 512.167 465.544 512.289C465.526 512.533 465.59 512.775 465.721 512.964C465.852 513.154 466.04 513.274 466.245 513.3L492.537 516.396H492.612C492.814 516.412 493.013 516.334 493.168 516.179C493.322 516.023 493.419 515.802 493.438 515.562H493.388ZM460.398 531.692C460.572 531.556 460.693 531.343 460.735 531.1C460.778 530.858 460.737 530.605 460.623 530.398L447.628 507.051C447.509 506.85 447.329 506.711 447.126 506.664C446.923 506.617 446.712 506.665 446.538 506.798C446.364 506.935 446.243 507.147 446.201 507.39C446.159 507.633 446.199 507.885 446.313 508.092L459.309 531.439C459.383 531.567 459.482 531.671 459.598 531.744C459.713 531.816 459.842 531.855 459.972 531.856C460.142 531.867 460.31 531.809 460.448 531.692H460.398ZM490.221 539.504C490.217 539.259 490.135 539.025 489.991 538.851C489.846 538.676 489.65 538.574 489.444 538.567L458.532 538.224C458.327 538.224 458.129 538.322 457.984 538.495C457.838 538.668 457.756 538.902 457.756 539.147C457.753 539.27 457.771 539.392 457.808 539.507C457.846 539.622 457.903 539.726 457.975 539.814C458.048 539.901 458.135 539.971 458.23 540.017C458.326 540.064 458.429 540.087 458.532 540.084L489.444 540.427C489.55 540.433 489.656 540.413 489.755 540.37C489.854 540.326 489.945 540.26 490.022 540.174C490.099 540.088 490.161 539.984 490.204 539.869C490.246 539.754 490.269 539.63 490.271 539.504H490.221ZM448.742 594.441C448.804 594.277 454.075 577.017 469.926 572.895C470.13 572.841 470.308 572.694 470.42 572.485C470.533 572.275 470.571 572.022 470.527 571.779C470.476 571.541 470.35 571.335 470.175 571.205C470 571.075 469.79 571.03 469.588 571.08C452.873 575.424 447.327 593.652 447.264 593.831C447.2 594.066 447.215 594.322 447.306 594.544C447.397 594.766 447.557 594.937 447.753 595.021H448.003C448.17 595.039 448.336 594.991 448.479 594.887C448.621 594.782 448.731 594.626 448.792 594.441H448.742ZM452.26 608.086C452.467 608.067 452.66 607.952 452.795 607.765C452.931 607.578 453 607.335 452.986 607.089C451.021 572.002 462.439 514.536 480.755 467.366C492.462 437.219 538.348 377.967 538.836 377.372C538.983 377.196 539.066 376.958 539.066 376.71C539.066 376.461 538.983 376.223 538.836 376.047C538.764 375.961 538.678 375.892 538.583 375.846C538.489 375.799 538.387 375.775 538.285 375.775C538.182 375.775 538.081 375.799 537.987 375.846C537.892 375.892 537.806 375.961 537.734 376.047C537.271 376.643 491.197 436.118 479.391 466.533C460.736 514.848 449.468 571.273 451.471 607.208C451.487 607.445 451.576 607.666 451.722 607.829C451.868 607.991 452.06 608.083 452.26 608.086ZM489.707 448.052C489.914 448.036 490.108 447.925 490.246 447.741C490.385 447.557 490.456 447.316 490.446 447.07L487.454 386.88C487.449 386.757 487.424 386.637 487.379 386.527C487.335 386.416 487.273 386.317 487.196 386.235C487.119 386.153 487.029 386.09 486.931 386.05C486.834 386.01 486.73 385.994 486.627 386.002C486.42 386.017 486.227 386.129 486.088 386.313C485.95 386.497 485.878 386.738 485.889 386.984L488.931 447.144C488.941 447.381 489.027 447.604 489.171 447.768C489.316 447.931 489.508 448.022 489.707 448.022V448.052ZM480.367 467.827C480.555 467.726 480.702 467.542 480.777 467.314C480.852 467.086 480.848 466.832 480.768 466.607L461.525 414.869C461.442 414.644 461.287 414.468 461.094 414.378C460.902 414.289 460.687 414.294 460.498 414.393C460.309 414.492 460.16 414.676 460.085 414.905C460.01 415.133 460.014 415.388 460.097 415.613L479.328 467.351C479.389 467.517 479.488 467.659 479.615 467.759C479.741 467.859 479.89 467.914 480.042 467.916C480.171 467.924 480.301 467.894 480.417 467.827H480.367ZM483.698 460.685L529.759 452.858C529.87 452.855 529.979 452.825 530.08 452.768C530.181 452.711 530.27 452.63 530.342 452.53C530.414 452.429 530.468 452.311 530.499 452.185C530.531 452.058 530.539 451.924 530.524 451.793C530.509 451.662 530.471 451.537 530.412 451.424C530.353 451.312 530.275 451.216 530.182 451.142C530.09 451.069 529.985 451.019 529.876 450.997C529.766 450.974 529.654 450.98 529.546 451.013L483.485 458.84C483.279 458.855 483.087 458.968 482.951 459.152C482.814 459.336 482.745 459.577 482.759 459.822C482.772 460.066 482.866 460.295 483.021 460.457C483.176 460.619 483.379 460.701 483.585 460.685H483.698ZM470.564 495.608C470.728 495.456 470.834 495.232 470.86 494.987C470.886 494.742 470.829 494.494 470.702 494.299L445.737 456.176C445.674 456.078 445.595 455.997 445.505 455.935C445.415 455.874 445.316 455.834 445.213 455.818C445.11 455.802 445.005 455.81 444.905 455.842C444.805 455.875 444.711 455.93 444.629 456.005C444.547 456.08 444.478 456.174 444.426 456.281C444.374 456.388 444.341 456.506 444.328 456.628C444.314 456.75 444.321 456.875 444.348 456.994C444.375 457.113 444.422 457.224 444.485 457.322L469.5 495.504C469.573 495.615 469.666 495.705 469.772 495.767C469.878 495.829 469.995 495.861 470.113 495.861C470.3 495.85 470.478 495.76 470.614 495.608H470.564ZM509.577 485.296C509.583 485.05 509.508 484.811 509.368 484.63C509.227 484.449 509.032 484.341 508.825 484.329L474.508 482.261C474.315 482.277 474.134 482.376 473.999 482.54C473.863 482.704 473.784 482.922 473.774 483.151C473.765 483.381 473.827 483.606 473.948 483.785C474.07 483.964 474.242 484.083 474.433 484.121L508.813 486.189C509.02 486.197 509.221 486.108 509.374 485.941C509.526 485.774 509.617 485.542 509.627 485.296H509.577ZM493.388 515.562C493.4 515.44 493.392 515.316 493.363 515.197C493.334 515.079 493.285 514.969 493.22 514.873C493.155 514.777 493.074 514.698 492.982 514.64C492.891 514.582 492.79 514.547 492.687 514.536L466.395 511.455C466.293 511.443 466.19 511.455 466.092 511.49C465.994 511.525 465.902 511.584 465.823 511.661C465.744 511.739 465.679 511.834 465.631 511.942C465.583 512.049 465.553 512.167 465.544 512.289C465.526 512.533 465.59 512.775 465.721 512.964C465.852 513.154 466.04 513.274 466.245 513.3L492.537 516.396H492.612C492.814 516.412 493.013 516.334 493.168 516.179C493.322 516.023 493.419 515.802 493.438 515.562H493.388ZM460.398 531.692C460.572 531.556 460.693 531.343 460.735 531.1C460.778 530.858 460.737 530.605 460.623 530.398L447.628 507.051C447.509 506.85 447.329 506.711 447.126 506.664C446.923 506.617 446.712 506.665 446.538 506.798C446.364 506.935 446.243 507.147 446.201 507.39C446.159 507.633 446.199 507.885 446.313 508.092L459.309 531.439C459.383 531.567 459.482 531.671 459.598 531.744C459.713 531.816 459.842 531.855 459.972 531.856C460.142 531.867 460.31 531.809 460.448 531.692H460.398ZM490.221 539.504C490.217 539.259 490.135 539.025 489.991 538.851C489.846 538.676 489.65 538.574 489.444 538.567L458.532 538.224C458.327 538.224 458.129 538.322 457.984 538.495C457.838 538.668 457.756 538.902 457.756 539.147C457.753 539.27 457.771 539.392 457.808 539.507C457.846 539.622 457.903 539.726 457.975 539.814C458.048 539.901 458.135 539.971 458.23 540.017C458.326 540.064 458.429 540.087 458.532 540.084L489.444 540.427C489.55 540.433 489.656 540.413 489.755 540.37C489.854 540.326 489.945 540.26 490.022 540.174C490.099 540.088 490.161 539.984 490.204 539.869C490.246 539.754 490.269 539.63 490.271 539.504H490.221ZM448.742 594.441C448.804 594.277 454.075 577.017 469.926 572.895C470.13 572.841 470.308 572.694 470.42 572.485C470.533 572.275 470.571 572.022 470.527 571.779C470.476 571.541 470.35 571.335 470.175 571.205C470 571.075 469.79 571.03 469.588 571.08C452.873 575.424 447.327 593.652 447.264 593.831C447.2 594.066 447.215 594.322 447.306 594.544C447.397 594.766 447.557 594.937 447.753 595.021H448.003C448.17 595.039 448.336 594.991 448.479 594.887C448.621 594.782 448.731 594.626 448.792 594.441H448.742Z" fill="black"/>
<path d="M472.705 581.853H437.261V590.572H440.353L446.751 638.144H463.215L469.613 590.572H472.705V581.853Z" fill="#6D83B2"/>
<path opacity="0.3" d="M472.705 581.853H437.261V590.572H440.353L446.751 638.144H463.215L469.613 590.572H472.705V581.853Z" fill="white"/>
<path d="M153.595 318.179L112.367 302.183L108.699 290.666L100.323 290.353L85.1235 286.931L86.9514 290.666L106.082 307.168L110.802 309.965L153.921 336.734L153.595 318.179Z" fill="white" stroke="#263238" stroke-width="1.00396" stroke-miterlimit="10"/>
<path d="M108.699 290.666L104.767 287.869L96.9173 291.291L98.2194 293.151L108.699 290.666Z" fill="white" stroke="#263238" stroke-width="1.00396" stroke-linejoin="round"/>
<path d="M153.595 318.179L112.367 302.183L108.699 290.666L100.323 290.353L85.1235 286.931L86.9514 290.666L106.082 307.168L110.802 309.965L153.921 336.734L153.595 318.179Z" fill="white"/>
<path opacity="0.5" d="M153.595 318.179L112.367 302.183L108.699 290.666L100.323 290.353L85.1235 286.931L86.9514 290.666L106.082 307.168L110.802 309.965L153.921 336.734L153.595 318.179Z" fill="#6D83B2" stroke="#263238" stroke-width="1.00396" stroke-miterlimit="10"/>
<path d="M153.595 318.179L112.367 302.183L108.699 290.666L100.323 290.353L85.1235 286.931L86.9514 290.666L106.082 307.168L110.802 309.965L153.921 336.734L153.595 318.179Z" stroke="#263238" stroke-width="1.00396" stroke-miterlimit="10"/>
<path d="M108.699 290.666L104.767 287.869L96.9173 291.291L98.2194 293.151L108.699 290.666Z" fill="white"/>
<path opacity="0.5" d="M108.699 290.666L104.767 287.869L96.9173 291.291L98.2194 293.151L108.699 290.666Z" fill="#6D83B2" stroke="#263238" stroke-width="1.00396" stroke-linejoin="round"/>
<path d="M108.699 290.666L104.767 287.869L96.9173 291.291L98.2194 293.151L108.699 290.666Z" stroke="#263238" stroke-width="1.00396" stroke-linejoin="round"/>
<path d="M162.347 214.361C162.347 214.361 161.708 221.057 163.298 225.358C164.888 229.658 173.715 244.225 173.715 244.225L157.239 259.924C157.239 259.924 150.403 243.556 149.101 240.907C147.799 238.259 146.234 226.861 150.478 218.691C154.722 210.522 160.832 208.32 162.347 214.361Z" fill="white"/>
<g style="mix-blend-mode:multiply" opacity="0.5">
<path d="M153.883 235.878L161.032 253.496L157.226 259.939L150.04 244.687L153.883 235.878Z" fill="#6D83B2"/>
</g>
<path d="M162.347 214.361C162.347 214.361 161.708 221.057 163.298 225.358C164.888 229.658 173.715 244.225 173.715 244.225L157.239 259.924C157.239 259.924 150.403 243.556 149.101 240.907C147.799 238.259 146.234 226.861 150.478 218.691C154.722 210.522 160.832 208.32 162.347 214.361Z" stroke="#263238" stroke-width="1.00396" stroke-miterlimit="10"/>
<path d="M167.455 202.1C166.441 194.66 159.267 179.527 147.886 180.108C140.499 180.494 137.044 182.265 133.839 184.423C131.226 186.252 128.791 188.418 126.577 190.881C121.018 198.812 119.065 200.984 120.142 207.055C120.054 209.477 120.373 211.895 121.081 214.168C122.784 219.569 123.948 223.096 125.425 225.67C124.975 228.185 123.798 234.821 123.735 236.339C123.673 237.857 127.491 236.8 129.419 236.22C133 245.743 139.56 252.35 141.601 253.109C145.157 254.433 150.778 247.484 153.758 242.098C156.738 236.711 154.484 230.655 154.497 228.244C154.509 225.834 161.195 220.536 163.674 218.855C166.153 217.174 168.457 209.525 167.455 202.1Z" fill="white"/>
<g style="mix-blend-mode:multiply" opacity="0.5">
<path d="M120.192 207.055C120.104 209.477 120.423 211.895 121.131 214.168C122.834 219.569 123.998 223.096 125.475 225.67C125.025 228.185 123.848 234.821 123.785 236.339C123.723 237.857 127.541 236.8 129.469 236.22C133.05 245.743 139.611 252.35 141.651 253.109C145.207 254.433 150.828 247.484 153.808 242.098C154.553 240.753 155.036 239.228 155.223 237.634C155.06 236.934 154.948 236.503 154.948 236.503C154.948 236.503 153.27 244.166 149.94 243.169C146.609 242.172 141.514 234.241 138.672 231.503C135.829 228.765 136.994 225.164 136.43 221.087C135.867 217.01 127.454 213.424 126.89 211.088C126.327 208.752 128.292 199.08 128.292 199.08C128.292 199.08 131.485 194.02 130.796 196.104C130.31 197.91 130.133 199.814 130.277 201.703C130.421 203.592 130.883 205.427 131.635 207.1C132.163 208.42 133 209.531 134.046 210.299C135.092 211.067 136.303 211.46 137.532 211.43L140.587 193.44L134.139 187.101L126.627 190.821C121.018 198.812 119.103 200.984 120.192 207.055Z" fill="#6D83B2"/>
</g>
<path d="M167.455 202.1C166.441 194.66 159.267 179.527 147.886 180.108C140.499 180.494 137.044 182.265 133.839 184.423C131.226 186.252 128.791 188.418 126.577 190.881C121.018 198.812 119.065 200.984 120.142 207.055C120.054 209.477 120.373 211.895 121.081 214.168C122.784 219.569 123.948 223.096 125.425 225.67C124.975 228.185 123.798 234.821 123.735 236.339C123.673 237.857 127.491 236.8 129.419 236.22C133 245.743 139.56 252.35 141.601 253.109C145.157 254.433 150.778 247.484 153.758 242.098C156.738 236.711 154.484 230.655 154.497 228.244C154.509 225.834 161.195 220.536 163.674 218.855C166.153 217.174 168.457 209.525 167.455 202.1Z" stroke="#263238" stroke-miterlimit="10"/>
<path d="M126.978 221.176L128.23 225.432C128.23 225.432 130.922 226.489 134.202 222.233" stroke="#263238" stroke-miterlimit="10" stroke-linecap="round"/>
<path d="M136.23 241.056C136.23 241.056 139.21 240.699 140.412 235.729" stroke="#263238" stroke-miterlimit="10" stroke-linecap="round"/>
<path d="M124.887 217.62C124.887 217.62 125.776 214.421 131.147 214.421" stroke="#263238" stroke-miterlimit="10" stroke-linecap="round"/>
<path d="M152.418 174.185C148.516 173.518 144.58 173.16 140.637 173.114C140.637 173.114 128.843 165.034 117.513 173.65C106.182 182.265 111.628 197.353 111.628 201.118C111.628 204.883 107.998 204.898 110.264 209.749C112.53 214.599 120.192 211.921 120.192 211.921C120.273 210.091 120.68 208.303 121.386 206.674C122.091 205.045 123.08 203.613 124.286 202.472C128.368 198.708 131.623 197.889 132.975 198.975C132.975 198.975 132.073 207.055 133.426 210.284C133.426 210.284 137.958 212.977 139.323 212.977C140.687 212.977 138.434 215.254 142.953 217.278C143.777 217.629 144.658 217.749 145.527 217.628C146.395 217.506 147.229 217.147 147.961 216.578C148.625 213.305 150.077 208.38 152.782 209.525C156.75 211.207 160.369 222.813 154.998 226.771C161.458 228.17 169.283 214.585 169.746 202.204C170.209 189.824 159.129 175.584 152.418 174.185Z" fill="#263238"/>
<path d="M133.175 193.663C133.175 193.663 136.506 191.535 140.587 196.089C144.669 200.642 152.606 206.728 163.123 203.38" stroke="white" stroke-width="0.5" stroke-linecap="round" stroke-linejoin="round"/>
<path d="M132.712 190.018C132.712 190.018 135.003 185.762 138.834 185.762C142.665 185.762 151.617 192.145 158.766 192.145" stroke="white" stroke-width="0.5" stroke-linecap="round" stroke-linejoin="round"/>
<path d="M130.108 198.217C130.108 198.217 125.763 191.848 121.682 197.011C117.6 202.175 120.192 207.055 120.192 207.055" stroke="white" stroke-width="0.5" stroke-linecap="round" stroke-linejoin="round"/>
<path d="M112.743 202.472C115.232 199.804 116.78 196.114 117.075 192.145C117.588 185.464 125.263 179.691 130.108 185.167" stroke="white" stroke-width="0.5" stroke-linecap="round" stroke-linejoin="round"/>
<path d="M120.655 178.173C120.655 178.173 128.33 169.364 134.715 180.599" stroke="white" stroke-width="0.5" stroke-linecap="round" stroke-linejoin="round"/>
<path d="M183.118 611.285C183.118 611.285 187.838 620.005 187.312 625.615L186.798 631.224C186.798 631.224 169.483 636.864 165.815 636.864C162.147 636.864 142.728 634.677 142.728 634.677L141.889 630.719C141.83 630.426 141.858 630.119 141.968 629.848C142.077 629.577 142.261 629.359 142.49 629.231L159.805 619.633L165.264 612.535L183.118 611.285Z" fill="white" stroke="#263238" stroke-width="1.00396" stroke-miterlimit="10"/>
<path d="M168.444 632.474C173.139 632.906 182.053 629.498 187.224 627.326L186.861 631.224C186.861 631.224 169.483 636.864 165.815 636.864C162.147 636.864 142.728 634.677 142.728 634.677L142.127 631.849C145.232 631.864 162.234 631.909 168.444 632.474Z" fill="#6D83B2" stroke="#263238" stroke-width="1.00396" stroke-miterlimit="10"/>
<path d="M159.83 619.633L134.628 632.668C134.628 632.668 132.474 639.081 134.628 640.361C136.781 641.64 183.731 640.361 183.731 640.361C183.731 640.361 186.974 630.228 181.853 623.427C176.732 616.627 159.83 619.633 159.83 619.633Z" fill="white" stroke="#263238" stroke-width="1.00396" stroke-miterlimit="10"/>
<path d="M183.731 640.361C183.731 640.361 136.781 641.641 134.628 640.361C133.588 639.736 133.551 637.935 133.789 636.224H184.557C184.391 637.631 184.115 639.016 183.731 640.361Z" fill="#6D83B2" stroke="#263238" stroke-width="1.00396" stroke-miterlimit="10"/>
<path d="M147.911 393.144C147.911 393.144 141.326 427.83 138.834 449.525C136.343 471.22 134.878 514.684 135.404 519.669C135.93 524.654 162.146 608.175 162.146 608.175L164.763 615.615L183.117 611.256C183.117 611.256 174.729 579.472 171.587 562.018C168.444 544.563 161.571 515.89 161.571 510.905C161.571 505.92 177.847 410.718 179.011 404.468C180.175 398.219 185.459 388.621 185.459 388.621L150.315 387.773L147.911 393.144Z" fill="#6D83B2" stroke="#263238" stroke-width="1.00396" stroke-miterlimit="10"/>
<path d="M147.911 393.145C147.911 393.145 144.055 424.824 145.645 446.846C147.235 468.869 150.653 515.756 150.653 522.734C150.653 529.713 160.131 571.392 160.669 584.486C161.508 603.399 160.331 612.758 160.331 612.758L159.768 619.618C159.768 619.618 170.823 621.493 173.239 622.311C176.03 623.166 178.91 623.537 181.79 623.413C181.79 623.413 185.809 602.387 185.809 584.472C185.809 566.556 182.466 529.683 180.801 514.744C179.136 499.804 184.382 442.174 187.362 431.416C190.342 420.658 196.852 397.876 192.47 386.24C188.088 374.604 147.911 393.145 147.911 393.145Z" fill="#6D83B2" stroke="#263238" stroke-width="1.00396" stroke-miterlimit="10"/>
<path d="M197.34 380.407L196.94 394.573C196.94 394.573 189.803 396.254 180.188 398.233C172.25 399.87 152.318 397.802 145.608 397.028C144.996 396.964 144.431 396.615 144.034 396.058C143.638 395.5 143.443 394.78 143.492 394.052L144.143 381.255L197.34 380.407Z" fill="#263238"/>
<path d="M169.446 239.196C169.446 239.196 158.178 253.674 153.933 262.677C149.689 271.679 148.011 285.473 146.421 296.335C144.831 307.198 149.138 332.702 147.924 344.413L144.08 381.3C144.08 381.3 143.254 383.8 146.021 386.538C148.788 389.276 162.297 390.273 174.504 391.002C178.961 391.27 192.27 387.862 194.448 387.698C197.077 387.505 197.165 383.532 197.278 380.407C197.803 365.721 200.032 326.571 201.497 309.519C204.514 274.744 188 241.175 169.446 239.196Z" fill="white" stroke="#263238" stroke-width="1.00396" stroke-miterlimit="10"/>
<g style="mix-blend-mode:multiply">
<path d="M200.12 329.294C200.62 321.572 201.121 314.563 201.559 309.519C201.685 308.031 201.76 306.543 201.822 305.055L171.887 311.007L146.171 300.591C146.174 306.915 146.475 313.234 147.072 319.518L172.3 327.911L200.12 329.294Z" fill="#6D83B2"/>
</g>
<g style="mix-blend-mode:multiply">
<path d="M168.331 240.654C166.629 242.901 163.248 247.469 160.031 252.32L179.036 275.28L185.296 272.304L168.331 240.654Z" fill="#6D83B2"/>
</g>
<path d="M169.446 239.196C169.446 239.196 158.178 253.674 153.933 262.677C152.675 265.413 151.655 268.295 150.891 271.277L173.552 240.163C172.213 239.681 170.838 239.357 169.446 239.196Z" fill="#263238"/>
<g style="mix-blend-mode:multiply">
<path d="M147.298 290.473L171.887 300.085L201.747 296.008C201.279 287.167 199.627 278.472 196.852 270.251L172.776 281.723L151.254 270.132C149.494 276.78 148.172 283.581 147.298 290.473Z" fill="#6D83B2"/>
</g>
<g style="mix-blend-mode:multiply">
<path d="M189.628 365.721C177.156 368.209 164.36 366.967 152.393 362.105L146.396 359.665L144.531 377.521L151.367 379.797C164.362 384.115 177.945 385.359 191.343 383.458L196.864 382.669C197.152 381.946 197.314 381.162 197.34 380.363C197.49 376.39 197.753 370.616 198.091 363.995L189.628 365.721Z" fill="#6D83B2"/>
</g>
<g style="mix-blend-mode:multiply">
<path d="M192.971 341.407C180.499 343.905 167.699 342.657 155.736 337.776L148.099 334.666C148.289 337.908 148.251 341.163 147.986 344.398L147.097 352.983L154.71 355.513C167.7 359.836 181.278 361.085 194.673 359.188L198.429 358.653C198.742 352.701 199.106 346.362 199.494 340.097L192.971 341.407Z" fill="#6D83B2"/>
</g>
<path d="M75.5097 278.482L99.7176 301.615L100.761 300.072L76.5531 276.94L75.5097 278.482Z" fill="#263238"/>
<path d="M181.102 255.252C181.102 255.252 189.978 262.439 190.179 279.417C190.266 286.857 189.615 293.806 188.176 305.992C186.736 318.179 177.797 357.864 170.835 362.685C163.874 367.506 153.07 358.4 153.07 358.4L100.811 317.167L88.1783 305.04L81.9184 290.993L83.884 286.529L99.2961 300.576L90.9953 291.455L92.623 288.999L95.6277 291.484L104.392 295.383L106.307 310.263L109.012 312.465L159.004 334.175C159.004 334.175 158.378 302.198 158.841 296.082C159.304 289.967 159.943 274.596 165.452 263.45" fill="white"/>
<g style="mix-blend-mode:multiply" opacity="0.5">
<path d="M158.653 310.01C158.653 321.051 158.966 334.175 158.966 334.175L109.024 312.554L106.32 310.352L104.404 295.472L95.6403 291.574L92.648 289.044L91.0204 291.499L99.2961 300.576L83.884 286.529L82.0185 290.919L88.2785 304.966L100.911 317.167L104.091 319.682L173.139 346.124L158.653 310.01Z" fill="#6D83B2"/>
</g>
<path d="M181.102 255.252C181.102 255.252 189.978 262.439 190.179 279.417C190.266 286.857 189.615 293.806 188.176 305.992C186.736 318.179 177.797 357.864 170.835 362.685C163.874 367.506 153.07 358.4 153.07 358.4L100.811 317.167L88.1784 305.04L81.9184 290.993L83.884 286.529L99.2961 300.576L90.9954 291.455L92.623 288.999L95.6277 291.484L104.392 295.383L106.307 310.263L109.012 312.465L159.004 334.175C159.004 334.175 158.378 302.198 158.841 296.082C159.304 289.967 159.943 274.596 165.452 263.45" stroke="#263238" stroke-width="1.00396" stroke-miterlimit="10"/>
<path d="M159.004 334.175L178.084 350.543L183.03 340.127C183.03 340.127 186.448 336.928 186.949 334.517C187.449 332.107 186.811 328.193 187.324 325.783C187.838 323.372 190.392 321.11 190.63 315.278C190.867 309.445 190.63 304.579 190.63 304.579C190.63 304.579 194.761 284.387 194.31 275.607C193.86 266.828 186.736 251.308 181.027 250.966C175.318 250.624 167.893 251.651 162.134 262.007C156.375 272.364 157.552 302.6 156.65 304.49C155.749 306.379 157.001 315.709 157.001 315.709C156.5 316.153 156.085 316.718 155.783 317.367C155.481 318.016 155.298 318.734 155.248 319.474C155.148 321.899 157.351 327.866 157.351 327.866L159.004 334.175Z" fill="white" stroke="#263238" stroke-width="1.00396" stroke-miterlimit="10"/>
<g style="mix-blend-mode:multiply">
<path d="M157.151 296.722C157.19 299.319 157.027 301.914 156.663 304.475C155.861 306.171 156.775 313.834 156.976 315.397C167.708 319.358 179.056 320.376 190.166 318.373C190.405 317.338 190.548 316.275 190.592 315.203C190.842 309.385 190.592 304.504 190.592 304.504C190.592 304.504 190.955 302.704 191.456 299.966C179.949 300.835 168.397 299.743 157.151 296.722Z" fill="#6D83B2"/>
</g>
<g style="mix-blend-mode:multiply">
<path d="M161.358 263.659C159.567 267.929 158.566 274.343 157.99 280.845C169.356 286 181.61 287.773 193.684 286.009C194.166 282.567 194.38 279.081 194.323 275.593C194.106 272.836 193.558 270.13 192.695 267.557C182.152 267.85 171.621 266.54 161.358 263.659Z" fill="#6D83B2"/>
</g>
<path d="M157.351 328.03L158.966 334.175L178.047 350.543L182.992 340.127C182.992 340.127 186.41 336.928 186.911 334.517C187 334.098 187.055 333.67 187.074 333.238C177.019 333.031 167.029 331.281 157.351 328.03Z" fill="#263238"/>
<path d="M171.161 622.118C171.161 622.118 171.587 609.232 173.665 590.394C175.743 571.556 170.748 544.801 169.909 540.337C169.07 535.873 170.335 525.963 169.496 522.481C168.657 519 164.6 504.149 166.992 486.918C169.383 469.687 171.324 424.14 171.324 424.14C171.324 424.14 165.302 418.321 163.536 410.748C161.771 403.174 163.123 400.793 163.123 400.793" stroke="#263238" stroke-width="1.00396" stroke-miterlimit="10"/>
<path d="M173.953 401.492L171.637 416.729" stroke="#263238" stroke-width="1.00396" stroke-miterlimit="10"/>
</svg>
